<?xml version="1.0" encoding="UTF-8" standalone="no"?>
<!-- Created with Inkscape (http://www.inkscape.org/) -->

<svg
   width="11.521961mm"
   height="17.665773mm"
   viewBox="0 0 11.521961 17.665773"
   version="1.1"
   id="svg25507"
   sodipodi:docname="Iex7buyz.svg"
   inkscape:version="1.1 (c68e22c387, 2021-05-23)"
   xmlns:inkscape="http://www.inkscape.org/namespaces/inkscape"
   xmlns:sodipodi="http://sodipodi.sourceforge.net/DTD/sodipodi-0.dtd"
   xmlns="http://www.w3.org/2000/svg"
   xmlns:svg="http://www.w3.org/2000/svg">
  <sodipodi:namedview
     id="namedview25509"
     pagecolor="#ffffff"
     bordercolor="#666666"
     borderopacity="1.0"
     inkscape:pageshadow="2"
     inkscape:pageopacity="0.0"
     inkscape:pagecheckerboard="0"
     inkscape:document-units="mm"
     showgrid="false"
     inkscape:zoom="6.058738"
     inkscape:cx="21.043986"
     inkscape:cy="37.218972"
     inkscape:window-width="1366"
     inkscape:window-height="705"
     inkscape:window-x="-8"
     inkscape:window-y="-8"
     inkscape:window-maximized="1"
     inkscape:current-layer="layer1" />
  <defs
     id="defs25504">
    <clipPath
       clipPathUnits="userSpaceOnUse"
       id="clipPath16742">
      <path
         d="M 0,792 H 612 V 0 H 0 Z"
         id="path16740" />
    </clipPath>
    <clipPath
       clipPathUnits="userSpaceOnUse"
       id="clipPath16750">
      <path
         d="m 180.359,479.339 h 4.908 v -10.811 h -4.908 z"
         id="path16748" />
    </clipPath>
    <clipPath
       clipPathUnits="userSpaceOnUse"
       id="clipPath16770">
      <path
         d="m 177.671,479.398 h 11.38 v -11.902 h -11.38 z"
         id="path16768" />
    </clipPath>
    <clipPath
       clipPathUnits="userSpaceOnUse"
       id="clipPath16798">
      <path
         d="m 178.357,478.065 h 4.965 v -7.208 h -4.965 z"
         id="path16796" />
    </clipPath>
    <clipPath
       clipPathUnits="userSpaceOnUse"
       id="clipPath16814">
      <path
         d="M 99.9722,459.531 H 136.39 V 415.207 H 99.9722 Z"
         id="path16812" />
    </clipPath>
    <linearGradient
       x1="0"
       y1="0"
       x2="1"
       y2="0"
       gradientUnits="userSpaceOnUse"
       gradientTransform="matrix(21.758285,32.04892,32.04892,-21.758285,106.61035,423.38281)"
       spreadMethod="pad"
       id="linearGradient16846">
      <stop
         style="stop-opacity:1;stop-color:#86c440"
         offset="0"
         id="stop16836" />
      <stop
         style="stop-opacity:1;stop-color:#0db04b"
         offset="0.415726"
         id="stop16838" />
      <stop
         style="stop-opacity:1;stop-color:#86c440"
         offset="0.617981"
         id="stop16840" />
      <stop
         style="stop-opacity:1;stop-color:#2da34a"
         offset="0.88940348"
         id="stop16842" />
      <stop
         style="stop-opacity:1;stop-color:#2da34a"
         offset="1"
         id="stop16844" />
    </linearGradient>
    <clipPath
       clipPathUnits="userSpaceOnUse"
       id="clipPath16856">
      <path
         d="M 0,792 H 612 V 0 H 0 Z"
         id="path16854" />
    </clipPath>
    <clipPath
       clipPathUnits="userSpaceOnUse"
       id="clipPath16872">
      <path
         d="m 112.341,456.696 c -0.835,-2.097 -1.186,-4.662 -1.044,-7.622 v 0 l 0.063,-1.035 c 0.117,-1.785 0.294,-4.483 -0.04,-6.376 v 0 c -0.012,-0.067 -0.075,-0.113 -0.142,-0.101 v 0 c -0.024,0.003 -2.299,0.358 -4.754,-0.34 v 0 c -3.279,-0.93 -5.305,-3.197 -6.027,-6.733 v 0 l -0.076,-0.325 c -0.464,-1.881 -1.875,-7.607 7.824,-16.753 v 0 c 0.421,-0.397 6.169,-3.865 9.925,-1.215 v 0 c 2.685,1.894 2.674,3.763 2.674,3.782 v 0 c 0,0.056 0.036,0.107 0.089,0.122 v 0 c 0.043,0.015 1.044,0.338 1.398,2.069 v 0 c 0.36,1.766 -0.225,2.888 -0.23,2.9 v 0 c -0.005,0.009 -0.009,0.018 -0.01,0.027 v 0 c -0.007,0.024 -0.151,0.572 -0.048,1.5 v 0 c 0.09,0.813 0.202,1.826 -0.482,4.777 v 0 c -0.123,0.532 -0.234,1.133 -0.349,1.768 v 0 c -0.225,1.231 -0.48,2.626 -0.927,4.053 v 0 c -0.763,2.442 -0.92,4.705 -0.475,6.92 v 0 c 0.011,0.052 0.052,0.092 0.105,0.099 v 0 c 0.052,0.008 0.105,-0.02 0.128,-0.067 v 0 c 0.006,-0.009 0.546,-0.995 2.933,-1.482 v 0 c 2.093,-0.427 5.034,0.889 6.36,4.17 v 0 c 0.016,0.041 0.054,0.07 0.099,0.077 v 0 c 0.045,0.005 0.089,-0.012 0.117,-0.048 v 0 c 0.008,-0.011 0.809,-1.045 3.044,-1.42 v 0 c 2.373,-0.397 3.59,0.959 3.831,1.967 v 0 c 0.107,0.453 0.076,0.841 -0.086,1.095 v 0 c -0.104,0.164 -0.266,0.269 -0.48,0.313 v 0 c -0.278,0.057 -0.407,0.011 -0.572,-0.047 v 0 c -0.222,-0.077 -0.474,-0.164 -1.083,-0.042 v 0 c -0.511,0.105 -2.141,0.651 -1.604,3.29 v 0 c 0.006,0.018 0.475,1.907 -0.455,3.394 v 0 c -0.541,0.864 -1.449,1.431 -2.697,1.686 v 0 c -3.293,0.672 -4.21,-0.26 -4.219,-0.269 v 0 c -0.034,-0.035 -0.083,-0.046 -0.128,-0.032 v 0 c -0.046,0.013 -0.081,0.054 -0.088,0.101 v 0 c -0.003,0.012 -0.258,1.221 -5.31,2.25 v 0 c -1.287,0.263 -2.326,0.382 -3.172,0.382 v 0 c -2.702,0 -3.446,-1.212 -4.092,-2.835"
         id="path16870" />
    </clipPath>
    <clipPath
       clipPathUnits="userSpaceOnUse"
       id="clipPath16880">
      <path
         d="m 99.853,459.656 h 36.66 v -44.569 h -36.66 z"
         id="path16878" />
    </clipPath>
    <clipPath
       clipPathUnits="userSpaceOnUse"
       id="clipPath16896">
      <path
         d="M 0,792 H 612 V 0 H 0 Z"
         id="path16894" />
    </clipPath>
    <clipPath
       clipPathUnits="userSpaceOnUse"
       id="clipPath16904">
      <path
         d="m 123.265,445.443 h 3.148 v -1.351 h -3.148 z"
         id="path16902" />
    </clipPath>
    <clipPath
       clipPathUnits="userSpaceOnUse"
       id="clipPath16920">
      <path
         d="m 131.345,447.808 h 2.336 v -1.313 h -2.336 z"
         id="path16918" />
    </clipPath>
    <clipPath
       clipPathUnits="userSpaceOnUse"
       id="clipPath16936">
      <path
         d="m 104.313,426.584 h 2.197 v -2.854 h -2.197 z"
         id="path16934" />
    </clipPath>
    <clipPath
       clipPathUnits="userSpaceOnUse"
       id="clipPath16952">
      <path
         d="m 117.105,420.943 h 3.241 v -1.13 h -3.241 z"
         id="path16950" />
    </clipPath>
    <linearGradient
       x1="0"
       y1="0"
       x2="1"
       y2="0"
       gradientUnits="userSpaceOnUse"
       gradientTransform="matrix(-11.030411,2.2493134,2.2493134,11.030411,125.31543,416.85937)"
       spreadMethod="pad"
       id="linearGradient17014">
      <stop
         style="stop-opacity:1;stop-color:#c58e2e"
         offset="0"
         id="stop17006" />
      <stop
         style="stop-opacity:1;stop-color:#c58e2e"
         offset="0.70032309"
         id="stop17008" />
      <stop
         style="stop-opacity:1;stop-color:#8b661b"
         offset="0.876404"
         id="stop17010" />
      <stop
         style="stop-opacity:1;stop-color:#8b661b"
         offset="1"
         id="stop17012" />
    </linearGradient>
    <clipPath
       clipPathUnits="userSpaceOnUse"
       id="clipPath17024">
      <path
         d="m 107.052,419.3 -1.058,0.271 c -2.399,2.584 -3.881,4.855 -4.775,6.803 v 0 l -0.546,1.013 -2.972,-15.075 22.213,-5.976 10.041,8.372 c 0,0 -2.15,10.728 -2.272,10.753 v 0 c -0.122,0.026 -12.06,5.095 -12.181,5.121 v 0 c -0.123,0.025 -7.95,0.216 -7.95,0.216 v 0 z"
         id="path17022" />
    </clipPath>
    <radialGradient
       fx="0"
       fy="0"
       cx="0"
       cy="0"
       r="1"
       gradientUnits="userSpaceOnUse"
       gradientTransform="matrix(-1.8713989,0.3816071,0.38237,1.8757935,112.2998,421.72656)"
       spreadMethod="pad"
       id="radialGradient17074">
      <stop
         style="stop-opacity:1;stop-color:#ffffff"
         offset="0"
         id="stop17070" />
      <stop
         style="stop-opacity:1;stop-color:#231f20"
         offset="1"
         id="stop17072" />
    </radialGradient>
    <clipPath
       clipPathUnits="userSpaceOnUse"
       id="clipPath17084">
      <path
         d="m 107.052,419.3 -1.058,0.271 c -2.399,2.584 -3.881,4.855 -4.775,6.803 v 0 l -0.546,1.013 -2.972,-15.075 22.213,-5.976 10.041,8.372 c 0,0 -2.15,10.728 -2.272,10.753 v 0 c -0.122,0.026 -12.06,5.095 -12.181,5.121 v 0 c -0.123,0.025 -7.95,0.216 -7.95,0.216 v 0 z"
         id="path17082" />
    </clipPath>
    <clipPath
       clipPathUnits="userSpaceOnUse"
       id="clipPath17096">
      <path
         d="m 111.904,420.908 h 1.287 v -1.367 h -1.287 z"
         id="path17094" />
    </clipPath>
    <radialGradient
       fx="0"
       fy="0"
       cx="0"
       cy="0"
       r="1"
       gradientUnits="userSpaceOnUse"
       gradientTransform="matrix(-0.8453522,0.2285614,0.2290955,0.8472748,103.07617,423.07227)"
       spreadMethod="pad"
       id="radialGradient17130">
      <stop
         style="stop-opacity:1;stop-color:#ffffff"
         offset="0"
         id="stop17126" />
      <stop
         style="stop-opacity:1;stop-color:#231f20"
         offset="1"
         id="stop17128" />
    </radialGradient>
    <clipPath
       clipPathUnits="userSpaceOnUse"
       id="clipPath17140">
      <path
         d="m 107.052,419.3 -1.058,0.271 c -2.399,2.584 -3.881,4.855 -4.775,6.803 v 0 l -0.546,1.013 -2.972,-15.075 22.213,-5.976 10.041,8.372 c 0,0 -2.15,10.728 -2.272,10.753 v 0 c -0.122,0.026 -12.06,5.095 -12.181,5.121 v 0 c -0.123,0.025 -7.95,0.216 -7.95,0.216 v 0 z"
         id="path17138" />
    </clipPath>
    <clipPath
       clipPathUnits="userSpaceOnUse"
       id="clipPath17152">
      <path
         d="m 102.84,422.684 h 0.61 v -0.608 h -0.61 z"
         id="path17150" />
    </clipPath>
    <linearGradient
       x1="0"
       y1="0"
       x2="1"
       y2="0"
       gradientUnits="userSpaceOnUse"
       gradientTransform="matrix(-4.134491,0.8430939,0.8430939,4.134491,114.72363,424.8457)"
       spreadMethod="pad"
       id="linearGradient17194">
      <stop
         style="stop-opacity:1;stop-color:#c58e2e"
         offset="0"
         id="stop17178" />
      <stop
         style="stop-opacity:1;stop-color:#c58e2e"
         offset="0.02397751"
         id="stop17180" />
      <stop
         style="stop-opacity:1;stop-color:#fcb813"
         offset="0.19101"
         id="stop17182" />
      <stop
         style="stop-opacity:1;stop-color:#fcb813"
         offset="0.40070489"
         id="stop17184" />
      <stop
         style="stop-opacity:1;stop-color:#ffd300"
         offset="0.556183"
         id="stop17186" />
      <stop
         style="stop-opacity:1;stop-color:#fcb813"
         offset="0.6069752"
         id="stop17188" />
      <stop
         style="stop-opacity:1;stop-color:#fcb813"
         offset="0.80899"
         id="stop17190" />
      <stop
         style="stop-opacity:1;stop-color:#c58e2e"
         offset="1"
         id="stop17192" />
    </linearGradient>
    <linearGradient
       x1="0"
       y1="0"
       x2="1"
       y2="0"
       gradientUnits="userSpaceOnUse"
       gradientTransform="matrix(-4.1239624,0.8409576,0.8409576,4.1239624,112.99121,410.44922)"
       spreadMethod="pad"
       id="linearGradient17226">
      <stop
         style="stop-opacity:1;stop-color:#c58e2e"
         offset="0"
         id="stop17210" />
      <stop
         style="stop-opacity:1;stop-color:#c58e2e"
         offset="0.02397751"
         id="stop17212" />
      <stop
         style="stop-opacity:1;stop-color:#fcb813"
         offset="0.19101"
         id="stop17214" />
      <stop
         style="stop-opacity:1;stop-color:#fcb813"
         offset="0.40070489"
         id="stop17216" />
      <stop
         style="stop-opacity:1;stop-color:#ffd300"
         offset="0.556183"
         id="stop17218" />
      <stop
         style="stop-opacity:1;stop-color:#fcb813"
         offset="0.6069752"
         id="stop17220" />
      <stop
         style="stop-opacity:1;stop-color:#fcb813"
         offset="0.80899"
         id="stop17222" />
      <stop
         style="stop-opacity:1;stop-color:#c58e2e"
         offset="1"
         id="stop17224" />
    </linearGradient>
    <linearGradient
       x1="0"
       y1="0"
       x2="1"
       y2="0"
       gradientUnits="userSpaceOnUse"
       gradientTransform="matrix(-2.7327271,0.557251,0.557251,2.7327271,107.41455,416.90527)"
       spreadMethod="pad"
       id="linearGradient17256">
      <stop
         style="stop-opacity:1;stop-color:#fcb813"
         offset="0"
         id="stop17242" />
      <stop
         style="stop-opacity:1;stop-color:#fcb813"
         offset="0.19101"
         id="stop17244" />
      <stop
         style="stop-opacity:1;stop-color:#fcb813"
         offset="0.40070489"
         id="stop17246" />
      <stop
         style="stop-opacity:1;stop-color:#ffd300"
         offset="0.556183"
         id="stop17248" />
      <stop
         style="stop-opacity:1;stop-color:#fcb813"
         offset="0.6069752"
         id="stop17250" />
      <stop
         style="stop-opacity:1;stop-color:#fcb813"
         offset="0.80899"
         id="stop17252" />
      <stop
         style="stop-opacity:1;stop-color:#c58e2e"
         offset="1"
         id="stop17254" />
    </linearGradient>
    <linearGradient
       x1="0"
       y1="0"
       x2="1"
       y2="0"
       gradientUnits="userSpaceOnUse"
       gradientTransform="matrix(-2.4801178,0.5057373,0.5057373,2.4801178,103.84521,416.90332)"
       spreadMethod="pad"
       id="linearGradient17288">
      <stop
         style="stop-opacity:1;stop-color:#c58e2e"
         offset="0"
         id="stop17272" />
      <stop
         style="stop-opacity:1;stop-color:#c58e2e"
         offset="0.02397751"
         id="stop17274" />
      <stop
         style="stop-opacity:1;stop-color:#fcb813"
         offset="0.19101"
         id="stop17276" />
      <stop
         style="stop-opacity:1;stop-color:#fcb813"
         offset="0.40070489"
         id="stop17278" />
      <stop
         style="stop-opacity:1;stop-color:#ffd300"
         offset="0.556183"
         id="stop17280" />
      <stop
         style="stop-opacity:1;stop-color:#fcb813"
         offset="0.6069752"
         id="stop17282" />
      <stop
         style="stop-opacity:1;stop-color:#fcb813"
         offset="0.80899"
         id="stop17284" />
      <stop
         style="stop-opacity:1;stop-color:#c58e2e"
         offset="1"
         id="stop17286" />
    </linearGradient>
    <linearGradient
       x1="0"
       y1="0"
       x2="1"
       y2="0"
       gradientUnits="userSpaceOnUse"
       gradientTransform="matrix(-7.0834503,1.444458,1.444458,7.0834503,125.35547,418.22656)"
       spreadMethod="pad"
       id="linearGradient17324">
      <stop
         style="stop-opacity:1;stop-color:#c58e2e"
         offset="0"
         id="stop17304" />
      <stop
         style="stop-opacity:1;stop-color:#c58e2e"
         offset="0.01410532"
         id="stop17306" />
      <stop
         style="stop-opacity:1;stop-color:#fcb813"
         offset="0.112366"
         id="stop17308" />
      <stop
         style="stop-opacity:1;stop-color:#fcb813"
         offset="0.18978772"
         id="stop17310" />
      <stop
         style="stop-opacity:1;stop-color:#ffd300"
         offset="0.247192"
         id="stop17312" />
      <stop
         style="stop-opacity:1;stop-color:#fcb813"
         offset="0.29234056"
         id="stop17314" />
      <stop
         style="stop-opacity:1;stop-color:#fcb813"
         offset="0.471909"
         id="stop17316" />
      <stop
         style="stop-opacity:1;stop-color:#c58e2e"
         offset="0.764038"
         id="stop17318" />
      <stop
         style="stop-opacity:1;stop-color:#c58e2e"
         offset="0.89953549"
         id="stop17320" />
      <stop
         style="stop-opacity:1;stop-color:#c58e2e"
         offset="1"
         id="stop17322" />
    </linearGradient>
  </defs>
  <g
     inkscape:label="Layer 1"
     inkscape:groupmode="layer"
     id="layer1"
     transform="translate(-33.46063,-70.285149)">
    <g
       id="g1278"
       inkscape:export-filename="C:\Users\garry\Documents\Artwork\Bookworm\Lex 2 three2.png"
       inkscape:export-xdpi="595.25269"
       inkscape:export-ydpi="595.25269"
       transform="rotate(-11.5,38.838461,79.390385)">
      <g
         id="g16736"
         style="display:inline"
         transform="matrix(-0.35277777,0,0,0.35277777,80.530106,-73.95369)">
        <g
           id="g16738"
           clip-path="url(#clipPath16742)">
          <g
             id="g16744"
             style="display:none">
            <g
               id="g16746" />
            <g
               id="g16758">
              <g
                 clip-path="url(#clipPath16750)"
                 opacity="0.639999"
                 id="g16756">
                <g
                   transform="translate(182.0469,468.5283)"
                   id="g16754">
                  <path
                     d="M 0,0 C -0.746,1.593 -0.993,3.118 0.452,4.345 1.682,5.389 2.264,5.35 2.693,6.349 3.105,7.307 3.22,10.811 3.22,10.811 2.64,5.181 -1.257,5.716 -1.652,3.945 -1.976,2.5 0,0 0,0"
                     style="fill:#faf39a;fill-opacity:1;fill-rule:nonzero;stroke:none"
                     id="path16752" />
                </g>
              </g>
            </g>
          </g>
          <g
             id="g16760"
             transform="translate(189.0508,472.417)"
             style="display:none">
            <path
               d="M 0,0 C 0,0 -1.203,0.645 -1.141,0.591 -0.668,0.188 -0.951,0.04 -1.096,-0.002 -1.691,-0.177 -4.264,-0.864 -4.525,-0.914 -4.81,-0.968 -4.813,-1.017 -4.889,-1.162 -4.967,-1.308 -6.178,-4.677 -6.2,-4.791 -6.217,-4.875 -6.227,-5.01 -6.23,-5.074 -6.232,-5.099 -6.232,-5.112 -6.232,-5.112 l 1.578,3.97 c 0,0 1.84,0.555 2.933,0.874 C -0.711,0.027 0,0 0,0 m -8.742,-1.61 c 0,0 -3.508,0.559 -3.821,0.433 -0.127,-0.049 -0.236,-0.138 -0.236,-0.138 z m 4.89,4.308 c -0.246,0.193 -0.255,0.256 -0.246,0.383 0.017,0.186 0.004,1.664 0.315,3.9 L -3.938,2.958 -3.314,2.431 c 0,0 -0.225,0.132 -0.165,-0.048 0,0 -0.179,0.165 -0.373,0.315"
               style="fill:#fcf8cd;fill-opacity:1;fill-rule:nonzero;stroke:none"
               id="path16762" />
          </g>
          <g
             id="g16764"
             style="display:none">
            <g
               id="g16766" />
            <g
               id="g16778">
              <g
                 clip-path="url(#clipPath16770)"
                 opacity="0.550003"
                 id="g16776">
                <g
                   transform="translate(177.7383,478.3525)"
                   id="g16774">
                  <path
                     d="M 0,0 -0.067,0.076 3.916,-1.13 c 0,0 0.044,-0.312 -0.48,-0.191 -0.225,0.052 -0.492,0.237 -0.985,0.43 C 1.926,-0.684 1.77,-0.706 1.118,-0.481 0.789,-0.367 0.024,0.004 0,0 M 7.072,-3.202 C 7.07,-3.219 7.069,-3.231 7.068,-3.24 Z m 3.124,-2.82 -3.538,-1.055 c 0,0 -0.598,-1.494 -0.97,-2.411 -0.367,-0.911 -0.238,-1.368 -0.238,-1.368 l 0.304,0.705 c 0,0 -0.063,0.235 0.076,0.676 0.142,0.442 0.895,2.305 0.895,2.305 0,0 1.483,0.551 2.134,0.671 0.651,0.119 1.1,0.115 1.1,0.115 l 1.354,0.448 -0.651,0.055 -0.029,0.147 -3.268,2.753 0.487,0.198 -0.002,0.665 C 7.827,-2.544 7.358,-2.679 7.402,-2.262 l 0.127,3.308 c 0,0 -0.542,-0.326 -0.779,-0.47 0.541,0.303 0.574,-0.055 0.575,-0.208 0.009,-0.757 -0.103,-2.264 -0.103,-3.023 0,-0.314 -0.01,-0.366 0.13,-0.491 0.192,-0.174 0.478,-0.389 0.478,-0.389 0,0 2.262,-1.85 2.439,-1.997 0.146,-0.124 0.219,-0.431 -0.073,-0.49"
                     style="fill:#ffffff;fill-opacity:1;fill-rule:nonzero;stroke:none"
                     id="path16772" />
                </g>
              </g>
            </g>
          </g>
          <g
             id="g16780"
             transform="translate(188.3486,472.3564)"
             style="display:none">
            <path
               d="M 0,0 C 0.122,0.05 0.188,0.173 0.146,0.275 0.103,0.378 -0.029,0.42 -0.151,0.371 -0.273,0.32 -0.339,0.197 -0.297,0.095 -0.255,-0.008 -0.122,-0.051 0,0 m -4.136,-0.975 c -0.031,0.074 0.018,0.162 0.106,0.199 0.086,0.035 0.182,0.005 0.212,-0.069 0.029,-0.073 -0.017,-0.163 -0.105,-0.199 -0.088,-0.035 -0.183,-0.004 -0.213,0.069"
               style="display:none;fill:#ffffff;fill-opacity:1;fill-rule:nonzero;stroke:none"
               id="path16782" />
          </g>
          <g
             id="g16784"
             transform="translate(188.2344,472.6084)"
             style="display:none">
            <path
               d="m 0,0 -1.236,0.409 1.207,-0.498 -0.049,-0.148 -0.27,-0.985 0.369,0.977 0.03,0.125 0.926,-0.331 -0.903,0.421 0.268,1.079 z"
               style="fill:#ffffff;fill-opacity:1;fill-rule:nonzero;stroke:none"
               id="path16786" />
          </g>
          <g
             id="g16788"
             transform="translate(184.5176,478.9395)"
             style="display:none">
            <path
               d="m 0,0 c 0.052,0.031 0.012,0.08 -0.049,0.036 -0.124,-0.093 -1.472,-0.589 -2.286,-1.196 0.144,0.273 2.087,1.352 3.396,2.243 l -3.949,-2.205 0.036,-0.509 C -2.871,-1.663 -2.79,-1.658 -2.822,-1.693 -2.574,-1.56 -1.641,-0.99 0,0 m -6.74,-5.345 -1.538,-2.466 c 0,0 2.036,3.041 2.133,3.19 0.157,0.238 0.157,0.238 0.059,0.681 -0.07,0.322 -0.701,3.156 -0.701,3.156 l 0.605,-3.567 -0.241,0.019 -2.451,-3.682 c 0,0 1.904,2.678 2.134,2.669 m 2.295,-3.143 0.236,0.355 c 0,0 0.289,-0.549 0.1,-0.801 z"
               style="fill:#cc6632;fill-opacity:1;fill-rule:nonzero;stroke:none"
               id="path16790" />
          </g>
          <g
             id="g16792"
             style="display:none">
            <g
               id="g16794" />
            <g
               id="g16806">
              <g
                 clip-path="url(#clipPath16798)"
                 opacity="0.320007"
                 id="g16804">
                <g
                   transform="translate(179.6035,470.8574)"
                   id="g16802">
                  <path
                     d="M 0,0 C -0.129,0.152 -0.715,0.916 -0.457,2.031 -0.107,3.548 2.336,4 2.882,4.49 4.248,5.715 3.53,7.208 3.53,7.208 L 3.018,6.904 c 0,0 0.798,-1.845 -2.625,-2.702 -1.39,-0.348 -1.889,-1.644 -1.525,-2.736 0.29,-0.865 0.61,-1.295 0.73,-1.437 z"
                     style="fill:#faf39a;fill-opacity:1;fill-rule:nonzero;stroke:none"
                     id="path16800" />
                </g>
              </g>
            </g>
          </g>
          <g
             id="g16808"
             style="display:inline">
            <g
               id="g16810" />
            <g
               id="g16822">
              <g
                 clip-path="url(#clipPath16814)"
                 id="g16820">
                <g
                   transform="translate(111.1777,441.5615)"
                   id="g16818">
                  <path
                     d="m 0,0 c -0.023,0.004 -2.299,0.358 -4.754,-0.339 -3.278,-0.931 -5.306,-3.197 -6.027,-6.733 l -0.075,-0.325 c -0.465,-1.882 -1.876,-7.608 7.823,-16.753 0.422,-0.398 6.17,-3.866 9.926,-1.215 2.684,1.894 2.673,3.762 2.673,3.781 0,0.057 0.037,0.107 0.089,0.123 0.043,0.014 1.044,0.337 1.398,2.068 0.36,1.767 -0.225,2.889 -0.23,2.901 -0.005,0.009 -0.009,0.017 -0.01,0.026 -0.006,0.024 -0.151,0.573 -0.048,1.501 0.09,0.813 0.203,1.825 -0.482,4.777 -0.123,0.532 -0.233,1.132 -0.348,1.768 -0.226,1.231 -0.48,2.625 -0.927,4.053 -0.764,2.441 -0.92,4.705 -0.476,6.92 0.011,0.051 0.052,0.092 0.106,0.098 0.051,0.008 0.104,-0.019 0.128,-0.066 0.005,-0.01 0.546,-0.995 2.932,-1.482 2.094,-0.427 5.034,0.889 6.361,4.169 0.015,0.041 0.053,0.071 0.098,0.078 0.045,0.004 0.089,-0.013 0.117,-0.049 0.009,-0.011 0.809,-1.045 3.044,-1.419 2.373,-0.398 3.59,0.958 3.83,1.967 0.108,0.453 0.078,0.84 -0.085,1.094 -0.104,0.164 -0.266,0.27 -0.479,0.314 C 24.306,7.313 24.176,7.268 24.012,7.21 23.789,7.133 23.537,7.045 22.929,7.168 c -0.512,0.104 -2.142,0.65 -1.605,3.289 0.006,0.019 0.475,1.907 -0.455,3.395 -0.541,0.863 -1.449,1.431 -2.697,1.686 -3.293,0.671 -4.21,-0.261 -4.219,-0.269 -0.033,-0.036 -0.083,-0.046 -0.128,-0.033 -0.046,0.014 -0.081,0.054 -0.088,0.102 -0.003,0.012 -0.258,1.221 -5.309,2.25 C 3.029,18.688 2.012,17.266 1.163,15.135 0.328,13.037 -0.022,10.473 0.119,7.513 L 0.182,6.478 C 0.299,4.692 0.477,1.994 0.143,0.102 0.131,0.034 0.066,-0.012 0,0"
                     style="display:inline;fill:#006837;fill-opacity:1;fill-rule:nonzero;stroke:none"
                     id="path16816" />
                </g>
              </g>
            </g>
          </g>
        </g>
      </g>
      <g
         id="g16824"
         style="display:inline"
         transform="matrix(-0.35277777,0,0,0.35277777,80.530106,-73.95369)">
        <g
           id="g16826">
          <g
             id="g16832">
            <g
               id="g16834">
              <path
                 d="m 112.44,456.017 c -0.671,-1.945 -0.946,-4.272 -0.818,-6.927 v 0 l 0.062,-1.03 c 0.118,-1.8 0.297,-4.522 -0.044,-6.453 v 0 c 0.001,-0.001 -0.001,-0.002 -0.001,-0.003 v 0 c 0.787,-0.238 5.606,-1.966 6.859,-8.805 v 0 c 0,0 3.025,-3.073 2.691,-5.891 v 0 c -0.335,-2.817 -0.261,-4.332 -0.881,-4.859 v 0 c -0.617,-0.529 -1.238,-1.071 -1.238,-1.071 v 0 c 0,0 -0.033,-0.018 -0.079,-0.041 v 0 c -0.07,-0.133 0.445,-0.075 0.279,-0.128 v 0 c -0.901,-0.279 -1.402,0.123 -1.554,0.227 v 0 c -0.139,0.096 0.03,0.079 0.12,0.051 v 0 c 0.252,-0.092 0.321,0.068 0.341,0.184 v 0 c 0.005,0.049 -0.002,0.084 0.01,0.142 v 0 c 0.219,1.071 0.138,2.794 0.143,3.75 v 0 c 0.002,0.956 -0.27,2.829 -0.145,3.985 v 0 c 0.124,1.155 0.019,3.536 0.019,3.536 v 0 c 0,0 -1.224,6.978 -7.05,8.518 v 0 c -0.861,0.226 -7.922,0.531 -10.089,-5.47 v 0 c -0.19,-0.526 -0.344,-1.099 -0.451,-1.726 v 0 c 0,-0.01 -0.004,-0.02 -0.005,-0.031 v 0 c -0.33,-1.348 -0.978,-4.428 1.781,-9.138 v 0 c 1.22,-2.082 3.105,-4.48 5.977,-7.188 v 0 c 0.409,-0.382 5.948,-3.705 9.515,-1.188 v 0 c 0.751,0.531 1.279,1.049 1.651,1.52 v 0 c 0.513,0.649 0.727,1.199 0.818,1.558 v 0 c -0.067,0.26 -0.528,0.202 -0.585,0.228 v 0 c -0.1,0.034 -0.012,0.101 0.082,0.13 v 0 c 0.348,0.102 0.803,0.447 0.869,0.497 v 0 c 0.005,0.006 0.012,0.01 0.017,0.017 v 0 c 0.027,0.027 0.87,0.307 1.178,1.823 v 0 c 0.103,0.503 0.124,0.949 0.103,1.327 v 0 c -0.044,0.849 -0.298,1.35 -0.302,1.356 v 0 c -0.016,0.03 -0.028,0.062 -0.037,0.095 v 0 c -0.006,0.02 -0.025,0.099 -0.045,0.227 v 0 c -0.041,0.264 -0.083,0.742 -0.011,1.393 v 0 c 0.087,0.789 0.197,1.771 -0.475,4.668 v 0 c -0.077,0.324 -0.147,0.676 -0.216,1.041 v 0 c -0.046,0.24 -0.09,0.488 -0.137,0.742 v 0 c -0.222,1.221 -0.476,2.605 -0.917,4.015 v 0 c -0.107,0.343 -0.201,0.684 -0.285,1.02 v 0 c -0.524,2.111 -0.59,4.102 -0.199,6.06 v 0 c 0.021,0.107 0.145,0.78 0.242,1.307 v 0 c 0.065,0.356 0.132,0.39 0.213,0.034 v 0 c 0.142,-0.631 0.497,-1.576 1.353,-1.964 v 0 c 0.415,-0.189 0.971,-0.416 1.743,-0.572 v 0 c 1.965,-0.402 4.732,0.855 5.994,3.972 v 0 c 0.05,0.129 0.454,0.998 0.434,1.38 v 0 c -0.03,0.581 -0.081,2.42 0.494,3.047 v 0 c 0.574,0.626 0.11,0.019 0,-0.213 v 0 c -0.112,-0.232 -0.405,-0.938 -0.359,-2.584 v 0 c 0.003,-0.085 -0.045,-1.316 1.157,-2.182 v 0 c 0.409,-0.294 0.957,-0.546 1.701,-0.697 v 0 c 1.092,-0.222 3.336,0.042 3.703,1.838 v 0 c 0.133,0.653 -0.098,0.934 -0.363,0.988 v 0 c -0.204,0.042 -0.63,-0.161 -1.159,-0.186 v 0 c -0.143,0.006 -0.308,0.025 -0.503,0.065 v 0 c -0.678,0.139 -1.329,0.543 -1.685,1.282 v 0 c -0.282,0.58 -0.382,1.363 -0.172,2.384 v 0 c 0.001,0.007 0.002,0.015 0.004,0.022 v 0 c 0.003,0.018 0.437,1.782 -0.421,3.146 v 0 c -0.465,0.743 -1.241,1.244 -2.305,1.496 v 0 c -2.112,0.344 -2.97,0.134 -3.323,-0.514 v 0 c -0.516,-0.954 0.063,-2.861 -0.641,-5.368 v 0 c -0.458,-1.631 -0.748,-2.631 -0.795,-3.145 v 0 c -0.074,-0.835 -0.269,-1.114 -0.227,-0.018 v 0 c 0.02,0.507 0.204,1.337 0.793,3.368 v 0 c 0.481,1.655 0.331,3.513 0.17,4.014 v 0 c -0.298,0.934 -0.424,2.606 -5.394,3.62 v 0 c -1.198,0.245 -2.333,0.447 -3.357,0.447 v 0 c -1.903,0 -3.422,-0.699 -4.248,-3.128"
                 style="fill:url(#linearGradient16846);stroke:none"
                 id="path16848" />
            </g>
          </g>
        </g>
      </g>
      <g
         id="g16850"
         style="display:inline"
         transform="matrix(-0.35277777,0,0,0.35277777,80.530106,-73.95369)">
        <g
           id="g16852"
           clip-path="url(#clipPath16856)">
          <g
             id="g16858"
             transform="translate(118.7813,421.125)">
            <path
               d="M 0,0 C 0.085,0.074 1.271,1.12 1.271,1.12 1.414,1.245 1.512,1.511 1.585,1.889 1.68,2.374 1.734,3.048 1.798,3.846 1.85,4.473 1.906,5.185 1.996,6.007 2.217,8.027 0.617,10.233 -0.256,11.27 -0.225,10.405 -0.198,9.08 -0.277,8.267 -0.348,7.541 -0.258,6.496 -0.178,5.575 -0.128,5.005 -0.081,4.468 -0.08,4.064 L -0.067,3.363 C -0.043,2.279 -0.014,0.931 -0.201,-0.034 -0.205,-0.057 -0.207,-0.072 -0.21,-0.091 -0.141,-0.068 -0.066,-0.036 0,0"
               style="fill:#00542b;fill-opacity:1;fill-rule:nonzero;stroke:none"
               id="path16860" />
          </g>
          <g
             id="g16862"
             transform="translate(118.6035,426.7002)">
            <path
               d="M 0,0 C 0.05,-0.57 0.097,-1.107 0.098,-1.511 L 0.11,-2.212 c 0.025,-1.084 0.054,-2.433 -0.133,-3.397 -0.004,-0.023 -0.006,-0.038 -0.009,-0.057 0.069,0.022 0.143,0.055 0.21,0.091 0.085,0.074 1.27,1.12 1.27,1.12 0.144,0.125 0.241,0.391 0.315,0.768 0.026,0.135 0.049,0.286 0.07,0.448 C 2.076,-1.194 0.794,0.54 -0.11,2.442 -0.145,1.737 -0.071,0.825 0,0 M -0.078,5.694 C -0.05,4.919 -0.03,3.792 -0.083,2.978 0.466,1.912 1.521,-0.186 1.998,-1.459 2.045,-0.896 2.096,-0.28 2.174,0.432 2.395,2.452 0.795,4.658 -0.078,5.694"
               style="fill:#ffffff;fill-opacity:1;fill-rule:nonzero;stroke:none"
               id="path16864" />
          </g>
        </g>
      </g>
      <g
         id="g16866"
         style="display:inline"
         transform="matrix(-0.35277777,0,0,0.35277777,80.530106,-73.95369)">
        <g
           id="g16868"
           clip-path="url(#clipPath16872)">
          <g
             id="g16874">
            <g
               id="g16876" />
            <g
               id="g16888">
              <g
                 clip-path="url(#clipPath16880)"
                 opacity="0.100006"
                 id="g16886">
                <g
                   transform="translate(132.623,445.833)"
                   id="g16884">
                  <path
                     d="m 0,0 c -2.402,0.415 -2.959,3.793 -2.959,3.793 0,0 0.016,1.018 0.238,1.323 C -2.5,5.422 -1.797,6.682 -2.977,5.583 -4.158,4.484 -3.369,2.25 -4.079,0.96 c -0.878,-1.597 -2.243,-3.598 -5.278,-3.517 -3.235,0.085 -3.147,3.959 -3.147,3.959 0,0 -0.471,0.351 -0.934,-2.074 -0.462,-2.426 -0.953,-4.527 0.844,-9.997 0.187,-0.567 1.705,-7.491 1.398,-8.577 -0.529,-1.875 2.006,-5.318 -1.962,-6.695 -0.199,-0.069 -0.656,-1.604 -0.014,-1.894 0,0 -1.411,0.056 -2.796,-0.11 -0.32,-0.039 1.473,9.309 -3.271,10.234 -4.706,0.917 -5.412,-7.306 -5.412,-7.306 0,0 -2.08,-0.819 -4.234,2.236 0,0 -3.641,4.972 -2.623,10.378 0.748,3.973 3.835,7.552 9.443,6.792 2.209,-0.3 6.76,-2.613 7.688,-11.817 l 0.252,4.394 c 0.012,6.907 -5.654,10.067 -6.439,10.305 0,0 0.025,2.207 -0.101,3.678 l 4.317,0.057 c 0,0 -1.223,0.568 -1.861,0.57 0,0 -0.749,1.015 -1.4,1.115 0,0 -1.119,0.56 -1.12,2.015 0,1.402 1.061,8.331 5.386,7.959 4.36,-0.375 8.347,-1.766 8.105,-6.245 C -7.32,4.917 -9.301,0.845 -8.04,0.46 c 1.261,-0.385 1.542,1.152 1.306,1.711 -0.236,0.558 -0.876,0.242 -0.378,2.214 0.499,1.971 0.716,3.203 0.66,4.012 -0.023,0.287 -0.085,2.409 2.919,2.275 1.498,-0.068 2.982,-1.947 2.75,-3.718 C -1.018,5.184 -1.426,2.715 0.719,2.277 2.127,1.99 1.988,2.562 2.992,2.325 3.998,2.088 2.341,-0.403 0,0 M 3.164,3.107 C 2.471,3.248 2.55,2.808 1.508,3.02 0.467,3.231 -0.41,4.134 0.002,6.154 c 0,0 1.117,4.344 -3.25,5.235 -3.43,0.699 -4.336,-0.307 -4.336,-0.307 0,0 -0.123,1.279 -5.408,2.357 -5.287,1.079 -6.49,-0.229 -7.406,-2.531 -0.541,-1.361 -1.239,-3.787 -1.053,-7.674 0.074,-1.564 0.43,-5.083 0.025,-7.382 0,0 -9.158,1.484 -10.922,-7.171 -0.283,-1.388 -2.631,-7.373 7.785,-17.194 0.467,-0.441 6.29,-3.903 10.083,-1.226 2.781,1.963 2.726,3.887 2.726,3.887 0,0 1.109,0.327 1.483,2.164 0.375,1.836 -0.241,2.983 -0.241,2.983 0,0 -0.146,0.54 -0.044,1.455 0.102,0.915 0.183,1.939 -0.485,4.818 -0.359,1.551 -0.595,3.651 -1.276,5.83 -0.609,1.945 -0.996,4.248 -0.474,6.859 0,0 0.527,-1.04 3.02,-1.548 2.062,-0.421 5.126,0.847 6.5,4.245 0,0 0.802,-1.078 3.125,-1.467 2.41,-0.403 3.714,0.985 3.97,2.061 0.17,0.718 0.033,1.418 -0.66,1.559"
                     style="display:inline;fill:#231f20;fill-opacity:1;fill-rule:nonzero;stroke:none"
                     id="path16882" />
                </g>
              </g>
            </g>
          </g>
        </g>
      </g>
      <g
         id="g16890"
         style="display:inline"
         transform="matrix(-0.35277777,0,0,0.35277777,80.530106,-73.95369)">
        <g
           id="g16892"
           clip-path="url(#clipPath16896)">
          <g
             id="g16898">
            <g
               id="g16900" />
            <g
               id="g16912">
              <g
                 clip-path="url(#clipPath16904)"
                 opacity="0.149994"
                 id="g16910">
                <g
                   transform="translate(123.2666,444.6855)"
                   id="g16908">
                  <path
                     d="M 0,0 C 0.043,0.201 0.712,0.065 1.53,0.151 2.429,0.248 3.186,0.922 3.145,0.72 3.103,0.517 2.279,-0.485 1.38,-0.583 0.562,-0.668 -0.04,-0.204 0,0"
                     style="fill:#ffffff;fill-opacity:1;fill-rule:nonzero;stroke:none"
                     id="path16906" />
                </g>
              </g>
            </g>
          </g>
          <g
             id="g16914">
            <g
               id="g16916" />
            <g
               id="g16928">
              <g
                 clip-path="url(#clipPath16920)"
                 opacity="0.149994"
                 id="g16926">
                <g
                   transform="translate(131.3896,447.793)"
                   id="g16924">
                  <path
                     d="M 0,0 C 0.13,0.102 0.466,-0.322 1.007,-0.687 1.603,-1.084 2.405,-1.061 2.278,-1.163 2.149,-1.265 1.138,-1.454 0.542,-1.057 0.003,-0.691 -0.127,-0.104 0,0"
                     style="fill:#ffffff;fill-opacity:1;fill-rule:nonzero;stroke:none"
                     id="path16922" />
                </g>
              </g>
            </g>
          </g>
          <g
             id="g16930">
            <g
               id="g16932" />
            <g
               id="g16944">
              <g
                 clip-path="url(#clipPath16936)"
                 opacity="0.100006"
                 id="g16942">
                <g
                   transform="translate(106.29,425.583)"
                   id="g16940">
                  <path
                     d="M 0,0 C 0.363,-0.753 0.267,-1.552 -0.219,-1.787 -0.704,-2.022 -1.392,-1.604 -1.757,-0.852 -2.121,-0.1 -2.023,0.701 -1.538,0.937 -1.054,1.171 -0.366,0.752 0,0"
                     style="fill:#ffffff;fill-opacity:1;fill-rule:nonzero;stroke:none"
                     id="path16938" />
                </g>
              </g>
            </g>
          </g>
          <g
             id="g16946">
            <g
               id="g16948" />
            <g
               id="g16960">
              <g
                 clip-path="url(#clipPath16952)"
                 opacity="0.210007"
                 id="g16958">
                <g
                   transform="translate(120.3457,420.5908)"
                   id="g16956">
                  <path
                     d="m 0,0 c 0,0 -2.09,-1.966 -3.24,0.353 0,0 1.19,-0.857 3.24,-0.353"
                     style="fill:#ffffff;fill-opacity:1;fill-rule:nonzero;stroke:none"
                     id="path16954" />
                </g>
              </g>
            </g>
          </g>
          <g
             id="g16962"
             transform="translate(117.7227,443.248)">
            <path
               d="m 0,0 c 0,0 0.995,1.231 -0.52,3.298 0,0 -1.456,0.681 -2.962,0.483 0,0 -1.184,1.594 -2.161,0.359 0,0 -0.144,-0.091 -0.546,0.233 0,0 -1.158,1.408 -1.54,-0.878 0,0 -0.38,-1.66 0.983,-0.705 0,0 0.519,0.561 0.971,0.59 0.453,0.029 1.746,0.008 1.746,0.008 z"
               style="fill:#721319;fill-opacity:1;fill-rule:nonzero;stroke:none"
               id="path16964" />
          </g>
          <g
             id="g16966"
             transform="translate(113.8359,446.1465)">
            <path
               d="m 0,0 3.163,-2.473 c 0,0 0.68,-1.05 0.821,-0.122 0,0 0.127,1.988 -0.727,2.733 0,0 -1.718,0.699 -2.911,0.476 C 0.346,0.614 0.42,0.155 0,0"
               style="fill:#db3c47;fill-opacity:1;fill-rule:nonzero;stroke:none"
               id="path16968" />
          </g>
          <g
             id="g16970"
             transform="translate(117.0547,444.2275)">
            <path
               d="M 0,0 C 0.021,0.691 -0.56,1.204 -1.089,1.528 0.627,1.664 -2.029,2.905 -2.001,2.148 -1.986,1.753 -1.545,1.353 -1.305,1.087 -1.65,1.32 -1.967,1.594 -2.309,1.828 -2.46,1.931 -2.559,1.962 -2.739,1.955 -2.832,1.951 -2.932,1.95 -3.01,1.903 c 0.232,-0.431 0.913,-0.719 1.294,-1.01 0.448,-0.345 0.898,-0.69 1.346,-1.034 0.12,-0.092 0.239,-0.183 0.358,-0.275 C 0.169,-0.316 0.17,-0.124 0,0"
               style="fill:#ed8c89;fill-opacity:1;fill-rule:nonzero;stroke:none"
               id="path16972" />
          </g>
          <g
             id="g16974"
             transform="translate(114.2031,446.6865)">
            <path
               d="m 0,0 c 0,0 -0.419,-0.354 -0.422,0.213 0,0 -0.724,0.89 -1.457,0.299 0,0 -0.386,-0.219 -0.678,-0.074 L -2.616,0.205 c 0,0 0.652,-0.024 0.721,-0.184 0,0 0.321,-0.893 1.399,-0.532 0,0 0.336,-0.262 0.377,0.046 z"
               style="fill:#e84334;fill-opacity:1;fill-rule:nonzero;stroke:none"
               id="path16976" />
          </g>
          <g
             id="g16978"
             transform="translate(112.3584,447.1904)">
            <path
               d="m 0,0 c -0.388,-0.515 -1.319,1.614 -1.772,0.167 -0.133,-0.282 -0.731,-1.129 -0.332,-1.418 0.33,-0.239 0.814,0.489 1.162,0.501 0,0 0.853,0.03 0.959,0.321 l 1.675,-0.425 0.177,0.202 0.072,0.158 C 1.941,-0.494 0.86,1.158 0,0"
               style="fill:#e84334;fill-opacity:1;fill-rule:nonzero;stroke:none"
               id="path16980" />
          </g>
          <g
             id="g16982"
             transform="translate(111.7734,446.7393)">
            <path
               d="m 0,0 c 0,0 -0.143,-0.317 -0.688,-0.25 l -0.615,-0.444 c 0,0 0.448,1.017 1.303,0.694"
               style="fill:#f0a8bc;fill-opacity:1;fill-rule:nonzero;stroke:none"
               id="path16984" />
          </g>
          <g
             id="g16986"
             transform="translate(112.7451,446.5264)">
            <path
               d="M 0,0 C 0.026,0.104 0.28,0.128 0.569,0.055 0.858,-0.02 1.07,-0.162 1.046,-0.266 1.019,-0.368 0.763,-0.393 0.474,-0.319 0.187,-0.246 -0.026,-0.104 0,0"
               style="fill:#ee93af;fill-opacity:1;fill-rule:nonzero;stroke:none"
               id="path16988" />
          </g>
          <g
             id="g16990"
             transform="translate(116.2695,445.0459)">
            <path
               d="m 0,0 c 0,0 -0.814,0.737 -0.352,0.831 0,0 1.084,0.079 0.177,0.45 0,0 -1.218,0.381 -1.077,-0.292 0,0 0.471,-1.108 1.252,-0.989"
               style="fill:#eea493;fill-opacity:1;fill-rule:nonzero;stroke:none"
               id="path16992" />
          </g>
        </g>
      </g>
      <g
         id="g16994"
         style="display:inline"
         transform="matrix(-0.35277777,0,0,0.35277777,80.530106,-73.95369)">
        <g
           id="g16996">
          <g
             id="g17002">
            <g
               id="g17004">
              <path
                 d="m 114.326,412.493 c 0,0 1.349,4.893 3.944,4.806 v 0 l 4.585,0.242 c 0,0 1.828,-0.004 2.523,1.476 v 0 c 0,0 1.175,1.907 0.567,2.328 v 0 c 0,0 -1.038,0.967 -1.349,-1.626 v 0 c 0,0 -0.054,-0.999 -1.723,-1.187 v 0 c 0,0 -2.822,-0.249 -4.549,-0.197 v 0 c -1.775,0.052 -2.189,1.662 -2.138,3.28 v 0 c 0,0 -0.036,2.994 -0.606,3.834 v 0 z"
                 style="fill:url(#linearGradient17014);stroke:none"
                 id="path17016" />
            </g>
          </g>
        </g>
      </g>
      <g
         id="g17018"
         style="display:inline"
         transform="matrix(-0.35277777,0,0,0.35277777,80.530106,-73.95369)">
        <g
           id="g17020"
           clip-path="url(#clipPath17024)">
          <g
             id="g17026"
             transform="translate(114.3262,412.4932)">
            <path
               d="m 0,0 c 0,0 1.349,4.893 3.943,4.807 l 4.585,0.241 c 0,0 1.829,-0.004 2.524,1.476 0,0 1.176,1.907 0.567,2.328 0,0 -1.038,0.967 -1.349,-1.625 0,0 -0.054,-1 -1.723,-1.188 0,0 -2.822,-0.249 -4.549,-0.197 -1.775,0.053 -2.189,1.662 -2.138,3.28 0,0 -0.037,2.994 -0.606,3.834"
               style="fill:none;stroke:#673d35;stroke-width:0.188;stroke-linecap:butt;stroke-linejoin:miter;stroke-miterlimit:4;stroke-dasharray:none;stroke-opacity:1"
               id="path17028" />
          </g>
          <g
             id="g17030"
             transform="translate(113.1191,427.6416)">
            <path
               d="m 0,0 c -2.475,0.319 -4.992,-3.386 -5.624,-8.275 -0.057,-0.442 -0.091,-0.875 -0.114,-1.303 -0.431,-0.064 -2.032,-0.245 -2.76,0.328 0.354,0.821 0.631,1.822 0.771,2.908 0.351,2.72 -0.271,4.979 -1.394,5.123 -1.137,0.147 -2.407,-1.922 -2.836,-4.702 -0.441,-2.872 0.189,-5.34 1.406,-5.423 0.528,-0.036 1.062,0.402 1.531,1.121 0.255,-0.193 1.644,-1.153 3.262,-0.795 0.12,-3.635 1.476,-6.432 3.471,-6.689 2.475,-0.32 4.992,3.385 5.623,8.274 C 3.968,-4.543 2.475,-0.319 0,0"
               style="fill:#c58e2e;fill-opacity:1;fill-rule:nonzero;stroke:none"
               id="path17032" />
          </g>
          <g
             id="g17034"
             transform="translate(113.1191,427.6416)">
            <path
               d="m 0,0 c -2.475,0.319 -4.992,-3.386 -5.624,-8.275 -0.057,-0.442 -0.091,-0.875 -0.114,-1.303 -0.431,-0.064 -2.032,-0.245 -2.76,0.328 0.354,0.821 0.631,1.822 0.771,2.908 0.351,2.72 -0.271,4.979 -1.394,5.123 -1.137,0.147 -2.407,-1.922 -2.836,-4.702 -0.441,-2.872 0.189,-5.34 1.406,-5.423 0.528,-0.036 1.062,0.402 1.531,1.121 0.255,-0.193 1.644,-1.153 3.262,-0.795 0.12,-3.635 1.476,-6.432 3.471,-6.689 2.475,-0.32 4.992,3.385 5.623,8.274 C 3.968,-4.543 2.475,-0.319 0,0 Z"
               style="fill:none;stroke:#673d35;stroke-width:0.188;stroke-linecap:butt;stroke-linejoin:miter;stroke-miterlimit:4;stroke-dasharray:none;stroke-opacity:1"
               id="path17036" />
          </g>
          <g
             id="g17038"
             transform="translate(115.457,418.3379)">
            <path
               d="m 0,0 c -0.49,-3.8 -2.447,-6.679 -4.369,-6.431 -1.923,0.249 -3.084,3.531 -2.594,7.33 0.491,3.8 2.448,6.678 4.371,6.43 C -0.67,7.081 0.491,3.8 0,0"
               style="fill:#ffffff;fill-opacity:1;fill-rule:nonzero;stroke:none"
               id="path17040" />
          </g>
          <g
             id="g17042"
             transform="translate(115.457,418.3379)">
            <path
               d="m 0,0 c -0.49,-3.8 -2.447,-6.679 -4.369,-6.431 -1.923,0.249 -3.084,3.531 -2.594,7.33 0.491,3.8 2.448,6.678 4.371,6.43 C -0.67,7.081 0.491,3.8 0,0 Z"
               style="fill:none;stroke:#673d35;stroke-width:0.188;stroke-linecap:butt;stroke-linejoin:miter;stroke-miterlimit:4;stroke-dasharray:none;stroke-opacity:1"
               id="path17044" />
          </g>
          <g
             id="g17046"
             transform="translate(104.4746,421.3662)">
            <path
               d="m 0,0 c -0.272,-2.117 -1.08,-3.854 -1.803,-3.814 -0.732,0.039 -1.066,1.88 -0.742,4.048 0.312,2.099 1.118,3.678 1.803,3.59 C -0.066,3.736 0.265,2.051 0,0"
               style="fill:#ffffff;fill-opacity:1;fill-rule:nonzero;stroke:none"
               id="path17048" />
          </g>
          <g
             id="g17050"
             transform="translate(104.4746,421.3662)">
            <path
               d="m 0,0 c -0.272,-2.117 -1.08,-3.854 -1.803,-3.814 -0.732,0.039 -1.066,1.88 -0.742,4.048 0.312,2.099 1.118,3.678 1.803,3.59 C -0.066,3.736 0.265,2.051 0,0 Z"
               style="fill:none;stroke:#673d35;stroke-width:0.197;stroke-linecap:butt;stroke-linejoin:miter;stroke-miterlimit:4;stroke-dasharray:none;stroke-opacity:1"
               id="path17052" />
          </g>
          <g
             id="g17054"
             transform="translate(111.7061,419.5967)">
            <path
               d="M 0,0 C 0.142,1.115 0.718,1.961 1.286,1.889 1.854,1.818 2.204,0.855 2.062,-0.26 1.922,-1.375 1.346,-2.221 0.776,-2.148 0.208,-2.078 -0.14,-1.115 0,0"
               style="fill:#738884;fill-opacity:1;fill-rule:nonzero;stroke:none"
               id="path17056" />
          </g>
        </g>
      </g>
      <g
         id="g17058"
         style="display:inline"
         transform="matrix(-0.35277777,0,0,0.35277777,80.530106,-73.95369)">
        <g
           id="g17060">
          <g
             id="g17066">
            <g
               id="g17068">
              <path
                 d="m 111.948,419.391 c -0.182,-0.896 0.046,-1.698 0.509,-1.794 v 0 c 0.463,-0.093 0.987,0.556 1.17,1.452 v 0 c 0.183,0.895 -0.045,1.697 -0.508,1.792 v 0 c -0.03,0.006 -0.06,0.009 -0.09,0.009 v 0 c -0.439,0 -0.91,-0.621 -1.081,-1.459"
                 style="fill:url(#radialGradient17074);stroke:none"
                 id="path17076" />
            </g>
          </g>
        </g>
      </g>
      <g
         id="g17078"
         style="display:inline"
         transform="matrix(-0.35277777,0,0,0.35277777,80.530106,-73.95369)">
        <g
           id="g17080"
           clip-path="url(#clipPath17084)">
          <g
             id="g17086"
             transform="translate(112.5488,418.7881)">
            <path
               d="M 0,0 C 0.233,0.539 0.665,0.87 0.965,0.74 1.264,0.609 1.315,0.067 1.08,-0.472 0.847,-1.01 0.414,-1.341 0.115,-1.211 -0.184,-1.08 -0.235,-0.537 0,0"
               style="fill:#ffffff;fill-opacity:1;fill-rule:nonzero;stroke:none"
               id="path17088" />
          </g>
          <g
             id="g17090">
            <g
               id="g17092" />
            <g
               id="g17104">
              <g
                 clip-path="url(#clipPath17096)"
                 opacity="0.300003"
                 id="g17102">
                <g
                   transform="translate(112.1953,420.5381)"
                   id="g17100">
                  <path
                     d="M 0,0 C 0.297,0.336 0.696,0.467 0.891,0.294 1.086,0.12 1.002,-0.292 0.704,-0.627 0.406,-0.963 0.009,-1.094 -0.186,-0.921 -0.381,-0.747 -0.297,-0.335 0,0"
                     style="fill:#ffffff;fill-opacity:1;fill-rule:nonzero;stroke:none"
                     id="path17098" />
                </g>
              </g>
            </g>
          </g>
          <g
             id="g17106"
             transform="translate(113.2041,420.708)">
            <path
               d="m 0,0 c 0,0 -0.466,1.348 -1.202,-0.451 0,0 -0.039,-0.643 0.525,0.078 0,0 0.446,0.374 0.677,0.373"
               style="fill:#ffffff;fill-opacity:1;fill-rule:nonzero;stroke:none"
               id="path17108" />
          </g>
          <g
             id="g17110"
             transform="translate(102.7422,422.1162)">
            <path
               d="M 0,0 C 0.096,0.506 0.385,0.877 0.643,0.828 0.901,0.778 1.033,0.328 0.936,-0.178 0.84,-0.686 0.552,-1.056 0.293,-1.006 0.035,-0.957 -0.096,-0.507 0,0"
               style="fill:#738884;fill-opacity:1;fill-rule:nonzero;stroke:none"
               id="path17112" />
          </g>
        </g>
      </g>
      <g
         id="g17114"
         style="display:inline"
         transform="matrix(-0.35277777,0,0,0.35277777,80.530106,-73.95369)">
        <g
           id="g17116">
          <g
             id="g17122">
            <g
               id="g17124">
              <path
                 d="m 102.847,422.014 c -0.111,-0.404 -0.028,-0.778 0.18,-0.835 v 0 c 0.21,-0.056 0.469,0.226 0.578,0.63 v 0 c 0.06,0.222 0.063,0.435 0.019,0.591 v 0 c -0.059,0.079 -0.116,0.157 -0.173,0.235 v 0 c -0.009,0.004 -0.018,0.007 -0.027,0.01 v 0 c -0.019,0.005 -0.037,0.007 -0.056,0.007 v 0 c -0.197,0 -0.422,-0.268 -0.521,-0.638"
                 style="fill:url(#radialGradient17130);stroke:none"
                 id="path17132" />
            </g>
          </g>
        </g>
      </g>
      <g
         id="g17134"
         style="display:inline"
         transform="matrix(-0.35277777,0,0,0.35277777,80.530106,-73.95369)">
        <g
           id="g17136"
           clip-path="url(#clipPath17140)">
          <g
             id="g17142"
             transform="translate(103.1895,421.6787)">
            <path
               d="M 0,0 C 0.123,0.239 0.315,0.386 0.432,0.327 0.547,0.267 0.541,0.024 0.418,-0.216 0.295,-0.455 0.103,-0.602 -0.014,-0.543 -0.129,-0.482 -0.123,-0.24 0,0"
               style="fill:#ffffff;fill-opacity:1;fill-rule:nonzero;stroke:none"
               id="path17144" />
          </g>
          <g
             id="g17146">
            <g
               id="g17148" />
            <g
               id="g17160">
              <g
                 clip-path="url(#clipPath17152)"
                 opacity="0.300003"
                 id="g17158">
                <g
                   transform="translate(102.9932,422.5332)"
                   id="g17156">
                  <path
                     d="M 0,0 C 0.145,0.146 0.332,0.194 0.417,0.108 0.5,0.024 0.45,-0.163 0.304,-0.308 0.159,-0.452 -0.028,-0.501 -0.112,-0.416 -0.196,-0.331 -0.146,-0.146 0,0"
                     style="fill:#ffffff;fill-opacity:1;fill-rule:nonzero;stroke:none"
                     id="path17154" />
                </g>
              </g>
            </g>
          </g>
          <g
             id="g17162"
             transform="translate(103.459,422.582)">
            <path
               d="m 0,0 c 0,0 -0.173,0.63 -0.563,-0.172 0,0 -0.036,-0.293 0.243,0.021 0,0 0.215,0.158 0.32,0.151"
               style="fill:#ffffff;fill-opacity:1;fill-rule:nonzero;stroke:none"
               id="path17164" />
          </g>
        </g>
      </g>
      <g
         id="g17166"
         style="display:inline"
         transform="matrix(-0.35277777,0,0,0.35277777,80.530106,-73.95369)">
        <g
           id="g17168">
          <g
             id="g17174">
            <g
               id="g17176">
              <path
                 d="m 110.381,424.663 c 2.628,2.877 4.31,0.015 4.31,0.015 v 0 c -0.614,1.202 -1.296,1.604 -1.933,1.604 v 0 c -1.279,0 -2.377,-1.619 -2.377,-1.619"
                 style="fill:url(#linearGradient17194);stroke:none"
                 id="path17196" />
            </g>
          </g>
        </g>
      </g>
      <g
         id="g17198"
         style="display:inline"
         transform="matrix(-0.35277777,0,0,0.35277777,80.530106,-73.95369)">
        <g
           id="g17200">
          <g
             id="g17206">
            <g
               id="g17208">
              <path
                 d="m 110.758,410.223 c 1.361,-0.308 2.367,0.88 2.367,0.88 v 0 c 0,0 -1.235,-0.898 -2.247,-0.691 v 0 c -1.01,0.206 -1.935,1.247 -1.935,1.247 v 0 c 0,0 0.414,-1.121 1.815,-1.436"
                 style="fill:url(#linearGradient17226);stroke:none"
                 id="path17228" />
            </g>
          </g>
        </g>
      </g>
      <g
         id="g17230"
         style="display:inline"
         transform="matrix(-0.35277777,0,0,0.35277777,80.530106,-73.95369)">
        <g
           id="g17232">
          <g
             id="g17238">
            <g
               id="g17240">
              <path
                 d="m 107.42,416.925 -0.005,0.303 c 0,0 -1.167,-0.642 -2.745,0.169 v 0 c 0,0 1.262,-0.891 2.75,-0.472"
                 style="fill:url(#linearGradient17256);stroke:none"
                 id="path17258" />
            </g>
          </g>
        </g>
      </g>
      <g
         id="g17260"
         style="display:inline"
         transform="matrix(-0.35277777,0,0,0.35277777,80.530106,-73.95369)">
        <g
           id="g17262">
          <g
             id="g17268">
            <g
               id="g17270">
              <path
                 d="m 102.51,416.497 c 0.336,-0.027 0.863,0.141 1.47,1.062 v 0 c 0,0 -0.806,-0.93 -1.41,-0.907 v 0 c -0.642,0.025 -1.121,1.168 -1.121,1.168 v 0 c 0.273,-0.854 0.652,-1.292 1.061,-1.323"
                 style="fill:url(#linearGradient17288);stroke:none"
                 id="path17290" />
            </g>
          </g>
        </g>
      </g>
      <g
         id="g17292"
         style="display:inline"
         transform="matrix(-0.35277777,0,0,0.35277777,80.530106,-73.95369)">
        <g
           id="g17294">
          <g
             id="g17300">
            <g
               id="g17302">
              <path
                 d="m 125.442,419.854 c -0.283,-0.532 -0.695,-1.432 -1.654,-1.783 v 0 c -1.172,-0.431 -6.501,-0.365 -5.879,-0.444 v 0 c 0,0 5.741,-0.31 6.646,0.686 v 0 c 0.44,0.483 0.543,0.558 1.193,1.861 v 0 c 0.023,0.047 0.024,0.091 -0.002,0.091 v 0 c -0.038,0 -0.135,-0.095 -0.304,-0.411"
                 style="fill:url(#linearGradient17324);stroke:none"
                 id="path17326" />
            </g>
          </g>
        </g>
      </g>
    </g>
  </g>
</svg>
